<!-- created by svgstack.com | Attribution is required. --><svg width="48" height="48" viewBox="0 0 48 48" fill="none" xmlns="http://www.w3.org/2000/svg"><path fill-rule="evenodd" clip-rule="evenodd" d="M21.2146 23.6233C20.9818 23.8229 20.9818 24.183 21.2146 24.3826L27.443 29.7212C28.072 30.2603 28.1449 31.2073 27.6057 31.8363C27.0666 32.4653 26.1197 32.5381 25.4907 31.999L19.2623 26.6603C17.6326 25.2635 17.6326 22.7424 19.2623 21.3455L25.4907 16.0069C26.1197 15.4678 27.0666 15.5406 27.6057 16.1696C28.1449 16.7986 28.072 17.7455 27.443 18.2847L21.2146 23.6233Z" fill="black"/><path fill-rule="evenodd" clip-rule="evenodd" d="M24 5.5C13.7827 5.5 5.5 13.7827 5.5 24C5.5 34.2173 13.7827 42.5 24 42.5C34.2173 42.5 42.5 34.2173 42.5 24C42.5 13.7827 34.2173 5.5 24 5.5ZM2.5 24C2.5 12.1259 12.1259 2.5 24 2.5C35.8741 2.5 45.5 12.1259 45.5 24C45.5 35.8741 35.8741 45.5 24 45.5C12.1259 45.5 2.5 35.8741 2.5 24Z" fill="black"/></svg> 