<?xml version="1.0" standalone="no"?>
<!DOCTYPE svg PUBLIC "-//W3C//DTD SVG 20010904//EN"
 "http://www.w3.org/TR/2001/REC-SVG-20010904/DTD/svg10.dtd">
<svg version="1.0" xmlns="http://www.w3.org/2000/svg"
 width="1600.000000pt" height="896.000000pt" viewBox="0 0 1600.000000 896.000000"
 preserveAspectRatio="xMidYMid meet">

<g transform="translate(0.000000,896.000000) scale(0.100000,-0.100000)"
fill="#000000" stroke="none">
<path d="M5990 5761 l0 -801 234 0 234 0 52 43 c29 23 67 53 86 66 l33 23 166
-57 c95 -34 169 -54 174 -49 11 13 72 163 111 272 24 68 39 96 54 102 40 15
43 11 202 -293 23 -43 44 -75 47 -70 3 4 46 172 97 373 119 477 116 467 140
475 26 8 59 -11 64 -38 6 -27 67 -400 136 -822 111 -689 108 -672 120 -620 4
17 8 415 9 886 l1 855 -87 66 c-172 129 -322 208 -515 272 -269 88 -424 107
-940 112 l-418 5 0 -800z"/>
<path d="M9147 6544 c-433 -43 -784 -177 -1054 -402 l-53 -44 0 -659 0 -659
25 6 c19 5 35 -1 63 -22 55 -43 144 -95 155 -91 5 1 29 54 53 117 24 62 49
117 55 121 13 8 39 0 183 -52 l88 -32 117 27 c261 61 329 77 396 91 55 12 152
15 453 15 l382 0 0 800 0 800 -362 -1 c-224 -1 -416 -7 -501 -15z"/>
<path d="M5575 6149 c-2 -3 -3 -271 -2 -595 l2 -589 153 -1 152 -2 0 597 0
596 -151 0 c-83 0 -153 -3 -154 -6z"/>
<path d="M10114 6145 c-2 -5 -3 -272 -2 -592 l3 -582 153 -5 152 -5 0 597 0
597 -151 0 c-92 0 -153 -4 -155 -10z"/>
<path d="M7608 5568 c-8 -35 -50 -202 -93 -373 -43 -170 -82 -316 -88 -322 -5
-7 -20 -13 -32 -13 -12 0 -27 6 -33 13 -12 15 -103 177 -154 277 -22 41 -42
78 -47 83 -8 8 -25 -31 -91 -208 -23 -60 -46 -116 -52 -122 -15 -19 -48 -16
-114 11 -32 13 -106 40 -163 60 l-103 36 -72 -61 -73 -61 -210 2 c-116 0 -229
-2 -252 -6 l-41 -7 0 -507 0 -507 73 12 c248 43 688 54 912 21 285 -41 540
-130 721 -253 90 -60 199 -156 221 -194 10 -16 21 -29 25 -29 4 0 8 144 8 319
l0 319 -25 6 c-33 8 -40 26 -54 126 -14 97 -81 518 -111 690 -11 63 -31 189
-45 280 -15 91 -35 212 -45 270 -10 58 -22 126 -26 153 -3 26 -9 47 -13 47 -4
0 -14 -28 -23 -62z"/>
<path d="M5584 4879 c-3 -6 -6 -320 -5 -698 0 -377 1 -694 1 -704 0 -17 43
-18 978 -16 l978 1 59 -41 c33 -23 65 -39 72 -37 7 3 10 -1 6 -10 -3 -8 1 -14
9 -14 8 0 44 -25 81 -55 37 -31 67 -51 67 -45 0 5 -4 10 -10 10 -5 0 -10 6
-10 14 0 7 -10 21 -22 30 -23 16 -23 16 9 10 27 -5 32 -3 27 10 -3 9 -13 16
-22 16 -12 0 -13 3 -4 12 8 8 15 8 27 -2 8 -7 15 -10 15 -6 0 13 -128 135
-180 172 -89 62 -110 74 -257 140 -102 46 -256 87 -418 111 -150 22 -592 25
-760 5 -119 -15 -286 -40 -322 -49 l-23 -5 0 574 0 575 -92 7 c-133 9 -196 8
-204 -5z m2178 -1486 c-3 -26 -2 -27 11 -9 10 13 16 15 21 7 9 -14 -12 -35
-41 -43 -20 -5 -23 -2 -24 23 -1 16 -2 37 -3 47 0 9 -11 27 -23 38 -40 37 -25
38 20 1 34 -29 41 -41 39 -64z m-87 37 c3 -6 -1 -7 -9 -4 -18 7 -21 14 -7 14
6 0 13 -4 16 -10z"/>
<path d="M8990 4823 c-157 -36 -305 -66 -330 -66 -27 0 -78 12 -128 31 -46 18
-89 32 -95 32 -11 0 -24 -33 -75 -180 -30 -88 -41 -89 -157 -15 -46 30 -91 55
-98 55 -8 0 -22 -42 -40 -124 l-27 -124 0 -499 c0 -275 2 -502 5 -505 3 -3 34
24 68 59 208 217 552 368 940 412 249 29 569 22 840 -18 l117 -17 -2 511 -3
510 -365 2 -365 2 -285 -66z"/>
<path d="M10154 4882 l-40 -3 4 -568 c2 -313 0 -571 -5 -574 -4 -2 -59 4 -122
14 -227 37 -442 52 -671 46 -298 -8 -473 -37 -690 -116 -78 -28 -276 -130
-289 -148 -3 -5 -31 -27 -62 -50 -57 -44 -119 -106 -119 -120 0 -5 -13 -21
-30 -36 -36 -34 -39 -51 -7 -42 17 5 19 4 7 -4 -8 -6 -23 -8 -32 -5 -14 4 -16
1 -11 -12 4 -11 2 -15 -4 -11 -5 3 -16 -5 -23 -18 -7 -13 -18 -26 -24 -28 -6
-2 -2 -3 8 -1 11 2 25 -1 31 -6 8 -7 31 5 71 36 32 25 61 50 62 55 2 5 10 9
18 9 8 0 14 3 14 8 0 4 30 27 68 52 59 39 128 95 95 76 -9 -5 -11 -2 -6 9 4
13 8 14 14 4 6 -10 11 -10 24 1 13 11 184 13 1001 11 l984 -3 -2 714 -3 713
-110 0 c-60 0 -128 -1 -151 -3z m-1779 -1452 c3 -5 2 -10 -4 -10 -5 0 -13 5
-16 10 -3 6 -2 10 4 10 5 0 13 -4 16 -10z m-25 -20 c0 -4 -6 -10 -13 -13 -7
-3 -13 3 -13 13 0 10 6 16 13 13 7 -3 13 -9 13 -13z m-115 -76 c-45 -30 -56
-31 -24 -1 13 12 32 23 42 24 11 1 4 -8 -18 -23z m-45 -41 c0 -7 -6 -10 -15
-7 -8 4 -15 18 -15 33 1 25 1 25 15 7 8 -11 15 -26 15 -33z m-60 -52 c-46 -40
-60 -43 -60 -13 0 15 2 15 10 2 9 -13 10 -13 10 0 0 8 15 23 33 32 52 27 55
20 7 -21z"/>
<path d="M7850 3330 c0 -5 5 -10 11 -10 5 0 7 5 4 10 -3 6 -8 10 -11 10 -2 0
-4 -4 -4 -10z"/>
<path d="M7836 3293 c-6 -14 -5 -15 5 -6 7 7 10 15 7 18 -3 3 -9 -2 -12 -12z"/>
<path d="M7870 3306 c0 -2 7 -9 15 -16 13 -11 14 -10 9 4 -5 14 -24 23 -24 12z"/>
<path d="M7908 3248 c15 -15 15 -23 -1 -40 -11 -11 -10 -16 6 -33 20 -20 20
-20 10 0 -13 25 -6 46 12 39 12 -5 12 -1 2 20 -7 14 -19 26 -26 26 -12 0 -12
-3 -3 -12z"/>
<path d="M7860 3225 c27 -14 36 -13 25 4 -3 6 -16 11 -28 11 -21 -1 -21 -1 3
-15z"/>
<path d="M7965 3200 c-3 -5 -2 -10 4 -10 5 0 13 5 16 10 3 6 2 10 -4 10 -5 0
-13 -4 -16 -10z"/>
<path d="M7940 3161 c0 -5 5 -13 10 -16 6 -3 10 -2 10 4 0 5 -4 13 -10 16 -5
3 -10 2 -10 -4z"/>
<path d="M9910 2958 c0 -118 -7 -141 -31 -111 -36 42 -144 58 -211 30 -171
-72 -185 -382 -20 -466 80 -41 161 -35 220 14 37 31 42 31 42 0 0 -23 3 -25
49 -25 l49 0 7 84 c4 46 5 198 2 336 l-6 252 -50 2 -51 1 0 -117z m-39 -208
c53 -63 51 -167 -6 -228 -31 -34 -38 -37 -88 -37 -60 0 -94 21 -123 77 -32 61
-9 167 45 209 21 17 36 20 85 17 53 -4 63 -8 87 -38z"/>
<path d="M5990 2730 l0 -330 160 0 c185 0 237 13 313 81 153 134 138 410 -28
520 -74 49 -125 59 -292 59 l-153 0 0 -330z m316 215 c94 -28 144 -101 144
-213 0 -114 -55 -195 -151 -222 -19 -6 -71 -10 -116 -10 l-83 0 0 230 0 230
78 0 c43 0 101 -7 128 -15z"/>
<path d="M7196 3044 c-3 -9 -6 -157 -6 -330 l0 -314 60 0 60 0 0 120 0 120 73
0 72 0 66 -118 66 -117 61 -3 c34 -2 62 0 62 3 0 3 -32 60 -70 128 l-70 122
22 15 c54 37 77 63 92 107 38 112 -2 220 -99 264 -34 16 -67 19 -211 19 -148
0 -173 -2 -178 -16z m356 -112 c27 -25 31 -36 31 -77 0 -41 -4 -52 -31 -77
-31 -27 -36 -28 -137 -28 l-105 0 0 105 0 105 105 0 c101 0 106 -1 137 -28z"/>
<path d="M6814 2865 c-23 -14 -45 -33 -50 -42 -6 -14 -9 -10 -13 17 -6 34 -7
35 -58 38 l-53 3 0 -240 0 -241 55 0 55 0 0 135 c0 150 8 178 60 215 16 12 46
24 65 27 35 6 35 6 35 59 0 52 -1 54 -27 54 -16 0 -47 -11 -69 -25z"/>
<path d="M7885 2878 c-49 -18 -99 -63 -125 -115 -36 -69 -36 -189 0 -253 72
-128 250 -166 369 -79 22 17 41 34 41 38 0 4 -13 20 -29 35 l-28 27 -38 -25
c-50 -34 -133 -36 -176 -5 -28 20 -59 66 -59 89 0 6 61 10 180 10 l180 0 0 38
c0 100 -57 198 -135 233 -45 21 -132 24 -180 7z m150 -98 c34 -21 62 -71 50
-89 -9 -15 -245 -15 -245 -1 0 25 33 72 63 90 41 25 91 25 132 0z"/>
<path d="M8382 2877 c-92 -34 -155 -132 -154 -241 1 -81 25 -139 80 -188 89
-80 225 -85 312 -11 22 19 40 38 40 41 0 4 -16 18 -35 30 l-34 24 -30 -21
c-132 -94 -283 65 -203 214 17 34 45 53 88 63 44 10 91 -3 127 -35 17 -16 20
-15 54 20 l37 36 -25 21 c-64 56 -175 76 -257 47z"/>
<path d="M8823 2869 c-83 -41 -143 -140 -143 -235 0 -93 80 -206 166 -235 49
-16 128 -17 176 0 45 15 107 74 133 126 29 57 27 175 -2 231 -25 47 -82 101
-129 120 -50 21 -151 17 -201 -7z m190 -99 c37 -29 61 -100 53 -157 -17 -124
-142 -172 -229 -88 -64 62 -60 174 8 234 30 26 44 31 89 31 38 0 61 -6 79 -20z"/>
<path d="M9432 2873 c-18 -9 -41 -27 -52 -40 l-19 -24 -3 33 c-3 32 -4 33 -55
36 l-53 3 0 -240 0 -241 55 0 55 0 0 130 c0 143 10 183 54 217 15 12 44 24 66
28 l40 7 0 54 c0 52 -1 54 -27 54 -16 0 -43 -8 -61 -17z"/>
<path d="M6952 2513 c-32 -27 -37 -64 -12 -96 43 -55 124 -24 122 45 -2 59
-66 88 -110 51z"/>
</g>
</svg>
