<!-- created by svgstack.com | Attribution is required. --><svg xmlns="http://www.w3.org/2000/svg" width="1024" height="1024" viewBox="0 0 1024 1024"><path fill="#39434F" d="M353.742 314.394c-5.378-49.674-3.186-92.788 29.34-135.026 52.718-68.456 150.538-68.653 215.368-18.423 3.804 2.946 7.512 7.316 11.654 9.953 7.224 3.394 13.634 3.37 21.282 7.451 51.508 27.487 42.998 89.141 39.94 136.045 30.732 24.646 21.332 88.056-22.018 98.996-9.6 41.038-37.806 77.724-74.592 98.022 4.062 3.538 5.004 4.59 5.04 10.044l.01.824c15.692 6.288 41.784 27.028 53.11 40.16 5.308 6.156 10.608 14.634 16.432 20.17 31.616 11.644 90.688 32.87 105 67.064 2.844 6.792 12.164 32.52 4.33 37.576-.74 1.744 2.254 15.168 2.672 18.726l15.38 136.898c.252 2.29 1.192 9.472 1.142 11.462l-.888-.242c-1.64-10.81-8.296-10.312-19.032-11.554-3.84-.444-9.034.112-12.974.468-26.354 2.392-52.608-1.668-78.92 1.48-11.212 1.342-23.068 3.834-34.292 4.096l-50.404.702c-16.298.074-42.736-2.88-55.494 9.51 4.392-9.508 19.37-30.172 25.932-40.274l54.412-84.23c5.39-8.206 20.412-30.166 24.01-38.488-4.166-6.86-17.184-21.302-22.806-27.802 11.278-3.436 19.766-5.622 31.328-8.14-1.298-9.638-14.532-68.838-13.104-72.512-4.672-2.108-7.744-3.5-12.724-4.74-4.536 2.034-25.274 66.46-28.25 75.3-4.47-2.544-31.732-27.196-35.672-31.57-2.274-2.388-8.676-7.656-11.488-10.122l-23.962-21c-14.338-12.896-33.354-27.376-48.644-39.598-2.822-2.254-6.89-5.35-9.294-7.946v-9.44c.69-6.504 1.672-15 1.72-21.42v-.972c-41.132-23.402-64.952-51.748-81.434-97.354-3.646-10.086-5.33-6.692-12.948-11.28-31.62-19.052-39.078-79.816-9.162-92.814M579.766 553c2.74 2.99 15.666 10.996 18.702 14.274 10.36 2.318 16.296 3.22 27.132 6.354-9.4-10.822-31.146-27.72-43.564-35.394 1.036 5.862 1.498 9.842-2.27 14.766"/><defs><linearGradient id="a" x1="326.226" x2="320.939" y1="427.942" y2="294.196" gradientUnits="userSpaceOnUse"><stop offset="0" stop-color="#AABFCC"/><stop offset="1" stop-color="#F3F1EF"/></linearGradient></defs><path fill="url(#a)" d="M312.8 293.675c2.29 1.148 4.182 1.892 6.552 2.825 1.38 3.067 3.081 6.186 4.674 9.145 8.401 15.609 15.376 46.706 13.894 65.156-10.491 2.213-17.317 12.406-14.67 22.621 6.295 24.289 42.087 16.367 36.5-8.755-1.756-7.897-7.167-12.579-15.168-13.866.948-21.881-3.719-44.765-12.689-64.73.263-.607-.036-1.254-.195-2.071 2.797-.053 2.281.29 3.965-1.611 11.855 5.083 30.778 13.354 36.306 25.982 2.29 5.233 1.408 15.395 7.35 15.254-.37.872 1.127 7.584 1.336 9.363l7.69 68.449c.126 1.145.596 4.736.571 5.731l-.444-.121c-.82-5.405-4.148-5.156-9.516-5.777-1.92-.222-4.517.056-6.487.234-13.177 1.196-26.304-.834-39.46.74-5.606.671-11.534 1.917-17.146 2.048l-25.202.351c-8.149.037-21.368-1.44-27.747 4.755 2.196-4.754 9.685-15.086 12.966-20.137l27.206-42.115c2.695-4.103 10.206-15.083 12.005-19.244-2.083-3.43-8.592-10.651-11.403-13.901 5.639-1.718 9.883-2.811 15.664-4.07-.649-4.819-7.266-34.419-6.552-36.256" transform="scale(2)"/><path fill="#F1C288" d="M553.576 520.308c4.69-1.766 9.166-3.45 14.084-4.466.308 12.108-.006 24.97 0 37.158-12.6 11.49-40.58 33.638-54.156 42.218-14.338-12.896-33.354-27.376-48.644-39.598-2.822-2.254-6.89-5.35-9.294-7.946v-9.44c.69-6.504 1.672-15 1.72-21.42v-.972c38.37 11.898 54.01 16.052 96.29 4.466"/><path fill="#E6AC71" d="M457.286 515.842c38.37 11.898 54.01 16.052 96.29 4.466-3.9 18.696-58.234 27.514-76.178 24.76-5.222-.802-19.77-7.18-21.832-6.834.69-6.504 1.672-15 1.72-21.42z"/><defs><linearGradient id="b" x1="277.645" x2="284.053" y1="326.285" y2="274.509" gradientUnits="userSpaceOnUse"><stop offset="0" stop-color="#57A7BC"/><stop offset="1" stop-color="#71D7E6"/></linearGradient></defs><path fill="url(#b)" d="M283.83 276.5c.737-.873 1.077-1.653 1.6-2.663 1.404.576 3.236 1.753 4.453 2.663 1.37 1.495 7.833 5.498 9.351 7.137 1.931 2.514 6.1 4.69 7.204 7.668-2.268 1.017-12.637 33.23-14.125 37.65-2.235-1.272-15.866-13.598-17.836-15.785-1.137-1.194-4.338-3.828-5.744-5.061l-11.981-10.5c6.788-4.29 20.778-15.364 27.078-21.109" transform="scale(2)"/><path fill="#FCFCFC" d="M657.81 599.438c4.426 1.344 9.214 3.52 13.516 5.34-3.368 3.802-2.336 3.116-7.93 3.222.318 1.634.916 2.928.39 4.142-1.968-4.396-3.822-8.384-5.976-12.704"/><path fill="#FCDDB1" d="M650.62 320.256c41.14 3.9 29.89 83.686-9.046 80.504l-.418.77c-3.992 7.438-7.898 22.474-11.678 31.07-39.394 89.576-158.848 113.026-217.572 28.136-8.072-11.666-14.188-21.046-19.982-34.692-1.902-4.474-6.964-22.532-8.702-25.284-34.492-2.072-49.808-61.864-20.994-77.304 8.672-4.646 15.536 10.824 18.23 17.646 6.09 3.796 19.304 13.382 24.366 18.262 2.476-.324 7.992-2.96 10.706-4.062-.11-36.608 71.582-37.634 69.926 7.552 5.19-.286 7.544-1.18 11.952-3.49 1.062-10.24 21.594-11.25 31.058 0 4.86 1.784 5.704 1.802 10.63 0-1.584-35.938 68.616-46.05 70.7 1.852 3.134-.706 6.658-1.274 9.844-1.852 5.394-5.444 15.124-11.29 21.934-15.028.17-.296 2.85-2.828 3.27-3.234 1.93-8.806 2.024-12.648 5.776-20.846"/><path fill="#FCDDB1" d="M415.53 355.302c-.11-36.608 71.582-37.634 69.926 7.552-14.782 52.792-78.156 30.23-69.926-7.552"/><path fill="#39434F" d="M449.434 342.246c7.196-2.278 14.876 1.708 17.156 8.904 2.28 7.194-1.702 14.876-8.896 17.16-7.198 2.286-14.886-1.7-17.168-8.9s1.706-14.886 8.908-17.164"/><path fill="#FCDDB1" d="M539.096 359.364c-1.584-35.938 68.616-46.05 70.7 1.852-6.668 43.944-63.784 45.852-70.7-1.852"/><path fill="#39434F" d="M569.724 342.286c7.314-1.232 14.244 3.684 15.498 10.994s-3.642 14.256-10.948 15.532c-7.336 1.282-14.32-3.64-15.578-10.98-1.26-7.342 3.684-14.31 11.028-15.546"/><path fill="#F1C288" d="M650.62 320.256c41.14 3.9 29.89 83.686-9.046 80.504 1.156-9.798-1.46-31.504 0-39.544v-5.914c-.87-3.504-.408-7.422 0-10.966.17-.296 2.85-2.828 3.27-3.234 1.93-8.806 2.024-12.648 5.776-20.846"/><path fill="#948068" d="M644.844 341.102c-.54 4.148-1.404 10.186-2.538 14.2-.08 2.066.032 4.034-.732 5.914v-5.914c-.87-3.504-.408-7.422 0-10.966.17-.296 2.85-2.828 3.27-3.234"/><path fill="#F1C288" d="M383.222 400.76c-34.492-2.072-49.808-61.864-20.994-77.304 8.672-4.646 15.536 10.824 18.23 17.646-1.976 5.61 1.442 50.866 2.764 59.658"/><path fill="#179CCF" d="M415.53 355.302c-8.23 37.782 55.144 60.344 69.926 7.552 5.19-.286 7.544-1.18 11.952-3.49-8.734 65.736-99.286 49.522-92.584 0 2.476-.324 7.992-2.96 10.706-4.062"/><path fill="#179CCF" d="M619.64 359.364c-1.526 50.958-77.268 67.18-91.174 0 4.86 1.784 5.704 1.802 10.63 0 6.916 47.704 64.032 45.796 70.7 1.852 3.134-.706 6.658-1.274 9.844-1.852"/><path fill="#39434F" d="M542.984 441.008c7.654-1.182 12.078 6.582 7.2 10.842-15.36 13.42-48.106 20.042-64.728 5.166-5.178-2.514-15.688-7.246-6.71-14.75 9.032-6.248 20.272 23.918 64.238-1.258"/><defs><linearGradient id="c" x1="256.082" x2="255.542" y1="116.659" y2="171.159" gradientUnits="userSpaceOnUse"><stop offset="0" stop-color="#ECBA7E"/><stop offset="1" stop-color="#FFE2AD"/></linearGradient></defs><path fill="url(#c)" d="M289.883 116.471c18.313 3.919 30.095 33.289 27.544 49.574-2.711 1.948-5.371 3.646-7.607 6.123-4.14-5.568-6.229-8.815-12.787-11.663-12.359-5.37-26.416-.855-31.835 11.663-6.304-4.243-12.148-4.214-18.376 0l-.591-1.246c-3.121-6.468-7.646-9.478-14.322-11.792-12.241-3.654-23.121 1.906-29.497 12.186-2.928-2.507-5.593-4.873-8.725-7.133.191-5.703 1.763-16.478 4.071-21.678 27.486 16.803 62.989-2.429 84.827-20.187 2.295-1.866 4.564-3.97 6.993-5.64z" transform="scale(2)"/><path fill="#FCFCFC" d="M679.342 754.29a24.435 24.435 0 0 1 26.752 33.072 24.43 24.43 0 0 1-19.352 15.226c-13.238 1.844-25.5-7.288-27.524-20.5-2.024-13.21 6.942-25.594 20.124-27.798"/><path fill="#39434F" d="M680.446 769.14a9.64 9.64 0 0 1 12.152 5.954 9.64 9.64 0 0 1-15.346 10.534 9.643 9.643 0 0 1 3.194-16.488"/><defs><linearGradient id="d" x1="187.607" x2="165.318" y1="440.674" y2="302.687" gradientUnits="userSpaceOnUse"><stop offset="0" stop-color="#ACC2CE"/><stop offset="1" stop-color="#EEEDEB"/></linearGradient></defs><path fill="url(#d)" d="M194.652 289.028c8.189-11.105 18.544-29.198 33.991-30.621-.024 3.21-.515 7.458-.86 10.71v4.72c1.202 1.298 3.236 2.846 4.647 3.973 7.645 6.111 17.153 13.351 24.322 19.799-3.267 1.843-15.465 12.48-18.29 15.561-3.891 3.468-14.65 13.602-18.456 15.785-2.318-8.425-8.878-32.108-12.241-39.007-2.445 1.303-5.441 2.413-7.635 3.727-1.225 1.942-4.548 10.341-4.813 12.396.195 1.95-.904 3.184-.954 4.992 1.163-.76 1.694-2.031 2.506-2.302-.095 5.853-1.467 14.291-2.217 20.194l-.048.856c.678.636 12.61 3.594 14.532 4.19-2.195 3.566-10.239 13.057-11.378 15.749 25.483 10.869 24.701 18.758 25.008 45.548 2.129 1.701 28.556 37.544 30.392 41.201-1.361-.62-2.745-3.638-4.586-5.129l.132.346c-15.506-2.591-20.929-2.987-35.489-.194l-18.609 3.504c-.002 0-1.878-.675-2.105-.733-8.351 3.046-20.303 1.265-28.566 3.287-5.498 1.346-6.742 4.311-10.954 1.155-1.352.061-20.511 1.572-20.643 1.673-.912.621-2.354.217-3.437.045l-.255.271c.805.695 1.571 1.185 1.923 2.15-9.705-5.104-6.441-17.461-5.499-26.184l5.384-50.649c.422-3.75 1.847-18.98 3.271-21.456-3.936-1.396-2.247-5.194-1.815-8.217 4.304-30.139 37.87-38.548 62.742-47.34m-9.654 9.842.178.477c4.674.146 2.585 2.535 4.065 5.051.641-2.68 1.524-5.275 2.37-7.898-2.27.73-4.386 1.531-6.613 2.37m9.654 60.055c.103 1.198 19.587 27.17 21.635 29.178.305-15.328-2.961-27.638-20.172-31.538h-1.463c-.804.862-.42 1.307 0 2.36m10.25-73.422c1.745-.287 7.067-1.291 8.675-1.866 2.18-1.476 8.427-7.38 9.189-9.8-.265-2.014-.432-4.265-.756-6.212-6.869 4.729-12.863 10.638-17.108 17.878" transform="scale(2)"/><path fill="#39434F" d="M389.304 578.056c16.378-22.21 37.088-58.396 67.982-61.242-.048 6.42-1.03 14.916-1.72 21.42v9.44c2.404 2.596 6.472 5.692 9.294 7.946 15.29 12.222 34.306 26.702 48.644 39.598-6.534 3.686-30.93 24.96-36.58 31.122-7.782 6.936-29.3 27.204-36.912 31.57-4.636-16.85-17.756-64.216-24.482-78.014-4.89 2.606-10.882 4.826-15.27 7.454-2.45 3.884-9.096 20.682-9.626 24.792.39 3.9-1.808 6.368-1.908 9.984 2.326-1.52 3.388-4.062 5.012-4.604-.19 11.706-2.934 28.582-4.434 40.388l-.096 1.712c1.356 1.272 25.22 7.188 29.064 8.38-4.39 7.132-20.478 26.114-22.756 31.498 50.966 21.738 49.402 37.516 50.016 91.096-3.042 21.462 9.852 48.868-19.774 55.768-4.736 9.746-14.818 14.514-25.074 9.214-17.794-9.194-3.384-39.954 25.074-22.166 11.342-8.416 6.886-42.574 6.816-57.206.61-30.656-5.922-55.276-40.344-63.076h-2.926c-24.704-9.252-57.612 15.534-61.548 42.348-1.094 7.45-1.53 65.394.522 71.542 1.126 3.374 3.94 4.82 6.882 6.392 10.33-6.92 24.48-10.704 30.698 2.094 10.092 20.768-23.494 31.438-32.366 10.858-10.176-2.806-20.038-10.416-19.23-21.828 3.998-56.534-16.48-101.634 51.682-125.036-1.65-23.912 4.702-68.034 12.538-90.704 1.282-5.36 3.048-10.55 4.74-15.796-4.54 1.46-8.772 3.062-13.226 4.74-38.934 13.818-86.472 29.202-94.308 74.808-1.216 7.076-.25 14.43-8.238 16.622-7.872-2.792-4.494-10.388-3.63-16.434 8.608-60.278 75.74-77.096 125.484-94.68m20.5-7.05c3.49-.574 14.134-2.582 17.35-3.732 4.36-2.952 16.854-14.76 18.378-19.6-.53-4.028-.864-8.53-1.512-12.424-13.738 9.458-25.726 21.276-34.216 35.756"/><defs><linearGradient id="e" x1="234.273" x2="230.334" y1="326.775" y2="272.116" gradientUnits="userSpaceOnUse"><stop offset="0" stop-color="#58A9BE"/><stop offset="1" stop-color="#73D7E6"/></linearGradient></defs><path fill="url(#e)" d="M222.766 273.837c2.028-2.255 2.805-1.69 5.017 0 1.202 1.298 3.236 2.846 4.647 3.973 7.645 6.111 17.153 13.351 24.322 19.799-3.267 1.843-15.465 12.48-18.29 15.561-3.891 3.468-14.65 13.602-18.456 15.785-2.318-8.425-8.878-32.108-12.241-39.007 1.829-2.206 3.852-4.216 5.812-6.311 2.18-1.476 8.427-7.38 9.189-9.8" transform="scale(2)"/><path fill="#A7BDCB" d="M390.634 612.142c.39 3.9-1.808 6.368-1.908 9.984 2.326-1.52 3.388-4.062 5.012-4.604-.19 11.706-2.934 28.582-4.434 40.388l-.096 1.712c1.356 1.272 25.22 7.188 29.064 8.38-4.39 7.132-20.478 26.114-22.756 31.498-3.726.292-12.562-.098-17.034 0-.112-9.79.526-43.88 4.74-51.4-.114-9.594 3.98-26.768 7.412-35.958"/><path fill="#FCFCFC" d="M390.634 612.142c.39 3.9-1.808 6.368-1.908 9.984 2.326-1.52 3.388-4.062 5.012-4.604-.19 11.706-2.934 28.582-4.434 40.388-1.868-3.432 5.54-43.812-2.258-20.326-4.388 2.956-3.474 5.97-3.454 10.866l-.37-.35c-.114-9.594 3.98-26.768 7.412-35.958"/><defs><linearGradient id="f" x1="256.876" x2="249.522" y1="389.711" y2="327.938" gradientUnits="userSpaceOnUse"><stop offset="0" stop-color="#254354"/><stop offset="1" stop-color="#3B7A8F"/></linearGradient></defs><path fill="url(#f)" d="M274.477 313.17c1.97 2.187 15.601 14.513 17.836 15.785-5.488 16.075-10.77 35.896-17.836 51.161-.405 1.356-2.427 8.305-2.985 9.288-1.177 4.133-4.143 11.554-5.731 15.727l-10.201 26.585c-5.638-14.636-10.554-29.064-16.006-43.613l-2.462-7.028c-2.927-6.737-6.659-18.963-8.883-26.168l-8.203-25.952c3.806-2.183 14.565-12.317 18.456-15.785 3.318 4.922 6.801 9.757 10.242 14.596 2.198-.169 12.268-.313 14.21 0 3.185-1.582 7.668-10.969 11.563-14.596" transform="scale(2)"/><path fill="#6EC9DB" d="M548.954 626.34c3.94 4.374 31.202 29.026 35.672 31.57-10.976 32.15-21.54 71.792-35.672 102.322-1.266-4.924-2.01-10.622-3.02-15.688-5.06-25.398-18.744-65.64-20.106-89.012 6.37-3.164 15.336-21.938 23.126-29.192"/><defs><linearGradient id="g" x1="227.319" x2="236.47" y1="377.4" y2="313.495" gradientUnits="userSpaceOnUse"><stop offset="0" stop-color="#58B1CA"/><stop offset="1" stop-color="#7CD8E8"/></linearGradient></defs><path fill="url(#g)" d="M238.462 313.17c3.318 4.922 6.801 9.757 10.242 14.596-.045 1.402-11.762 53.572-11.612 53.309-2.927-6.737-6.659-18.963-8.883-26.168l-8.203-25.952c3.806-2.183 14.565-12.317 18.456-15.785" transform="scale(2)"/><path fill="#39434F" d="M479.108 776.206c7.352 2.21 17.498-1.984 25.134-3.504 9.166-1.824 21.086.522 29.404-.956 1.954 1.308 10.154 4.146 8.286 6.966l1.052.096c-2.354 8.266-8.286 23.108-11.462 31.454l-20.402 53.17c-11.276-29.272-21.108-58.128-32.012-87.226"/><path fill="#A7BDCB" d="M525.828 858.796c12.758-12.39 39.196-9.436 55.494-9.51l50.404-.702c11.224-.262 23.08-2.754 34.292-4.096 26.312-3.148 52.566.912 78.92-1.48 3.94-.356 9.134-.912 12.974-.468 10.736 1.242 17.392.744 19.032 11.554l.888.242c4.918 31.636-11.8 34.796-38.8 34.766l-461.064-.118c-5.268-.024-12.402-.248-16.83-3.236-.704-1.93-2.236-2.91-3.846-4.3l.51-.542c2.166.344 5.05 1.152 6.874-.09.264-.202 38.582-3.224 41.286-3.346 8.424 6.312 10.912.382 21.908-2.31 16.526-4.044 40.43-.482 57.132-6.574.454.116 4.206 1.466 4.21 1.466l37.218-7.008c29.12-5.586 39.966-4.794 70.978.388l-.264-.692c3.682 2.982 6.45 9.018 9.172 10.258 1.266 1.3 3.698 5.392 4.804 7.148 3.63-5.872 10.104-16.888 14.708-21.35"/><path fill="#39434F" d="m513.504 595.218 23.962 21c2.812 2.466 9.214 7.734 11.488 10.122-7.79 7.254-16.756 26.028-23.126 29.192-3.884-.626-24.024-.338-28.42 0-6.882-9.678-13.848-19.348-20.484-29.192 5.65-6.162 30.046-27.436 36.58-31.122"/></svg>